<?xml version="1.0" encoding="UTF-8" standalone="no"?><!DOCTYPE svg PUBLIC "-//W3C//DTD SVG 1.1//EN" "http://www.w3.org/Graphics/SVG/1.1/DTD/svg11.dtd"><svg width="100%" height="100%" viewBox="0 0 142 142" version="1.1" xmlns="http://www.w3.org/2000/svg" xmlns:xlink="http://www.w3.org/1999/xlink" xml:space="preserve" xmlns:serif="http://www.serif.com/" style="fill-rule:evenodd;clip-rule:evenodd;stroke-miterlimit:10;"><rect x="0.545" y="-0.315" width="141.733" height="141.733" style="stroke:#000;stroke-width:1.65px;"/><g><rect x="7.689" y="122.24" width="11.487" height="11.487" style="fill:#fff;stroke:#000;stroke-width:1.65px;"/><rect x="19.176" y="122.24" width="11.486" height="11.487" style="fill:#fff;stroke:#000;stroke-width:1.65px;"/><rect x="30.662" y="122.24" width="11.487" height="11.487" style="fill:#fff;stroke:#000;stroke-width:1.65px;"/><rect x="42.149" y="122.24" width="11.486" height="11.487" style="stroke:#000;stroke-width:1.65px;"/><rect x="53.635" y="122.24" width="11.485" height="11.487" style="fill:#fff;stroke:#000;stroke-width:1.65px;"/><rect x="65.12" y="122.24" width="11.487" height="11.487" style="stroke:#000;stroke-width:1.65px;"/><rect x="76.607" y="122.24" width="11.487" height="11.487" style="fill:#fff;stroke:#000;stroke-width:1.65px;"/><rect x="88.094" y="122.24" width="11.486" height="11.487" style="stroke:#000;stroke-width:1.65px;"/><rect x="99.58" y="122.24" width="11.487" height="11.487" style="fill:#fff;stroke:#000;stroke-width:1.65px;"/><rect x="111.067" y="122.24" width="11.487" height="11.487" style="fill:#fff;stroke:#000;stroke-width:1.65px;"/><rect x="122.555" y="122.24" width="11.486" height="11.487" style="stroke:#000;stroke-width:1.65px;"/><rect x="7.689" y="110.755" width="11.487" height="11.486" style="fill:#fff;stroke:#000;stroke-width:1.65px;"/><rect x="7.689" y="99.269" width="11.487" height="11.487" style="fill:#fff;stroke:#000;stroke-width:1.65px;"/><rect x="7.689" y="87.782" width="11.487" height="11.487" style="fill:#fff;stroke:#000;stroke-width:1.65px;"/><rect x="7.689" y="76.294" width="11.487" height="11.487" style="fill:#fff;stroke:#000;stroke-width:1.65px;"/><rect x="7.689" y="64.809" width="11.487" height="11.486" style="stroke:#000;stroke-width:1.65px;"/><rect x="7.689" y="53.321" width="11.487" height="11.487" style="fill:#fff;stroke:#000;stroke-width:1.65px;"/><rect x="7.689" y="41.834" width="11.487" height="11.487" style="fill:#fff;stroke:#000;stroke-width:1.65px;"/><rect x="7.689" y="30.35" width="11.487" height="11.485" style="fill:#fff;stroke:#000;stroke-width:1.65px;"/><rect x="7.689" y="18.863" width="11.487" height="11.487" style="fill:#fff;stroke:#000;stroke-width:1.65px;"/><rect x="7.689" y="7.375" width="11.487" height="11.487" style="fill:#fff;stroke:#000;stroke-width:1.65px;"/><rect x="19.176" y="110.755" width="11.486" height="11.486" style="stroke:#000;stroke-width:1.65px;"/><rect x="19.176" y="99.269" width="11.486" height="11.487" style="stroke:#000;stroke-width:1.65px;"/><rect x="19.176" y="87.782" width="11.486" height="11.487" style="stroke:#000;stroke-width:1.65px;"/><rect x="19.176" y="76.294" width="11.486" height="11.487" style="stroke:#000;stroke-width:1.65px;"/><rect x="19.176" y="64.809" width="11.486" height="11.486" style="stroke:#000;stroke-width:1.65px;"/><rect x="19.176" y="53.321" width="11.486" height="11.487" style="stroke:#000;stroke-width:1.65px;"/><rect x="19.176" y="41.834" width="11.486" height="11.487" style="stroke:#000;stroke-width:1.65px;"/><rect x="19.176" y="30.35" width="11.486" height="11.485" style="fill:#fff;stroke:#000;stroke-width:1.65px;"/><rect x="19.176" y="18.863" width="11.486" height="11.487" style="stroke:#000;stroke-width:1.65px;"/><rect x="19.176" y="7.375" width="11.486" height="11.487" style="stroke:#000;stroke-width:1.65px;"/><rect x="30.662" y="110.755" width="11.487" height="11.486" style="stroke:#000;stroke-width:1.65px;"/><rect x="30.662" y="99.269" width="11.487" height="11.487" style="stroke:#000;stroke-width:1.65px;"/><rect x="30.662" y="87.782" width="11.487" height="11.487" style="stroke:#000;stroke-width:1.65px;"/><rect x="30.662" y="76.294" width="11.487" height="11.487" style="stroke:#000;stroke-width:1.65px;"/><rect x="30.662" y="64.809" width="11.487" height="11.486" style="stroke:#000;stroke-width:1.65px;"/><rect x="30.662" y="53.321" width="11.487" height="11.487" style="stroke:#000;stroke-width:1.65px;"/><rect x="30.662" y="41.834" width="11.487" height="11.487" style="fill:#fff;stroke:#000;stroke-width:1.65px;"/><rect x="30.662" y="30.35" width="11.487" height="11.485" style="stroke:#000;stroke-width:1.65px;"/><rect x="30.662" y="18.863" width="11.487" height="11.487" style="fill:#fff;stroke:#000;stroke-width:1.65px;"/><rect x="30.662" y="7.375" width="11.487" height="11.487" style="stroke:#000;stroke-width:1.65px;"/><rect x="42.149" y="110.755" width="11.486" height="11.486" style="stroke:#000;stroke-width:1.65px;"/><rect x="42.149" y="99.269" width="11.486" height="11.487" style="stroke:#000;stroke-width:1.65px;"/><rect x="42.149" y="87.782" width="11.486" height="11.487" style="stroke:#000;stroke-width:1.65px;"/><rect x="42.149" y="76.294" width="11.486" height="11.487" style="stroke:#000;stroke-width:1.65px;"/><rect x="42.149" y="64.809" width="11.486" height="11.486" style="stroke:#000;stroke-width:1.65px;"/><rect x="42.149" y="53.321" width="11.486" height="11.487" style="fill:#fff;stroke:#000;stroke-width:1.65px;"/><rect x="42.149" y="41.834" width="11.486" height="11.487" style="stroke:#000;stroke-width:1.65px;"/><rect x="42.149" y="30.35" width="11.486" height="11.485" style="stroke:#000;stroke-width:1.65px;"/><rect x="42.149" y="18.863" width="11.486" height="11.487" style="stroke:#000;stroke-width:1.65px;"/><rect x="42.149" y="7.375" width="11.486" height="11.487" style="fill:#fff;stroke:#000;stroke-width:1.65px;"/><rect x="53.635" y="110.755" width="11.485" height="11.486" style="fill:#fff;stroke:#000;stroke-width:1.65px;"/><rect x="53.635" y="99.269" width="11.485" height="11.487" style="fill:#fff;stroke:#000;stroke-width:1.65px;"/><rect x="53.635" y="87.782" width="11.485" height="11.487" style="fill:#fff;stroke:#000;stroke-width:1.65px;"/><rect x="53.635" y="76.294" width="11.485" height="11.487" style="stroke:#000;stroke-width:1.65px;"/><rect x="53.635" y="64.809" width="11.485" height="11.486" style="stroke:#000;stroke-width:1.65px;"/><rect x="53.635" y="53.321" width="11.485" height="11.487" style="stroke:#000;stroke-width:1.65px;"/><rect x="53.635" y="41.834" width="11.485" height="11.487" style="stroke:#000;stroke-width:1.65px;"/><rect x="53.635" y="30.35" width="11.485" height="11.485" style="stroke:#000;stroke-width:1.65px;"/><rect x="53.635" y="18.863" width="11.485" height="11.487" style="stroke:#000;stroke-width:1.65px;"/><rect x="53.635" y="7.375" width="11.485" height="11.487" style="stroke:#000;stroke-width:1.65px;"/><rect x="65.121" y="110.755" width="11.486" height="11.486" style="stroke:#000;stroke-width:1.65px;"/><rect x="65.121" y="99.269" width="11.486" height="11.487" style="fill:#fff;stroke:#000;stroke-width:1.65px;"/><rect x="65.121" y="87.782" width="11.486" height="11.487" style="stroke:#000;stroke-width:1.65px;"/><rect x="65.121" y="76.294" width="11.486" height="11.487" style="fill:#fff;stroke:#000;stroke-width:1.65px;"/><rect x="65.121" y="64.809" width="11.486" height="11.486" style="stroke:#000;stroke-width:1.65px;"/><rect x="65.121" y="53.321" width="11.486" height="11.487" style="stroke:#000;stroke-width:1.65px;"/><rect x="65.121" y="41.834" width="11.486" height="11.487" style="stroke:#000;stroke-width:1.65px;"/><rect x="65.121" y="30.35" width="11.486" height="11.485" style="stroke:#000;stroke-width:1.65px;"/><rect x="65.121" y="18.863" width="11.486" height="11.487" style="stroke:#000;stroke-width:1.65px;"/><rect x="65.121" y="7.375" width="11.486" height="11.487" style="stroke:#000;stroke-width:1.65px;"/><rect x="76.609" y="110.755" width="11.486" height="11.486" style="fill:#fff;stroke:#000;stroke-width:1.65px;"/><rect x="76.609" y="99.269" width="11.486" height="11.487" style="fill:#fff;stroke:#000;stroke-width:1.65px;"/><rect x="76.609" y="87.782" width="11.486" height="11.487" style="fill:#fff;stroke:#000;stroke-width:1.65px;"/><rect x="76.609" y="76.294" width="11.486" height="11.487" style="stroke:#000;stroke-width:1.65px;"/><rect x="76.609" y="64.809" width="11.486" height="11.486" style="stroke:#000;stroke-width:1.65px;"/><rect x="76.609" y="53.321" width="11.486" height="11.487" style="stroke:#000;stroke-width:1.65px;"/><rect x="76.609" y="41.834" width="11.486" height="11.487" style="fill:#fff;stroke:#000;stroke-width:1.65px;"/><rect x="76.609" y="30.35" width="11.486" height="11.485" style="fill:#fff;stroke:#000;stroke-width:1.65px;"/><rect x="76.609" y="18.863" width="11.486" height="11.487" style="fill:#fff;stroke:#000;stroke-width:1.65px;"/><rect x="76.609" y="7.375" width="11.486" height="11.487" style="stroke:#000;stroke-width:1.65px;"/><rect x="88.094" y="110.755" width="11.486" height="11.486" style="stroke:#000;stroke-width:1.65px;"/><rect x="88.094" y="99.269" width="11.486" height="11.487" style="stroke:#000;stroke-width:1.65px;"/><rect x="88.094" y="87.782" width="11.486" height="11.487" style="stroke:#000;stroke-width:1.65px;"/><rect x="88.094" y="76.294" width="11.486" height="11.487" style="stroke:#000;stroke-width:1.65px;"/><rect x="88.094" y="64.809" width="11.486" height="11.486" style="stroke:#000;stroke-width:1.65px;"/><rect x="88.094" y="53.321" width="11.486" height="11.487" style="fill:#fff;stroke:#000;stroke-width:1.65px;"/><rect x="88.094" y="41.834" width="11.486" height="11.487" style="stroke:#000;stroke-width:1.65px;"/><rect x="88.094" y="30.35" width="11.486" height="11.485" style="stroke:#000;stroke-width:1.65px;"/><rect x="88.094" y="18.863" width="11.486" height="11.487" style="stroke:#000;stroke-width:1.65px;"/><rect x="88.094" y="7.375" width="11.486" height="11.487" style="fill:#fff;stroke:#000;stroke-width:1.65px;"/><rect x="99.58" y="110.755" width="11.486" height="11.486" style="fill:#fff;stroke:#000;stroke-width:1.65px;"/><rect x="99.58" y="99.269" width="11.486" height="11.487" style="fill:#fff;stroke:#000;stroke-width:1.65px;"/><rect x="99.58" y="87.782" width="11.486" height="11.487" style="fill:#fff;stroke:#000;stroke-width:1.65px;"/><rect x="99.58" y="76.294" width="11.486" height="11.487" style="fill:#fff;stroke:#000;stroke-width:1.65px;"/><rect x="99.58" y="64.809" width="11.486" height="11.486" style="stroke:#000;stroke-width:1.65px;"/><rect x="99.58" y="53.321" width="11.486" height="11.487" style="fill:#fff;stroke:#000;stroke-width:1.65px;"/><rect x="99.58" y="41.834" width="11.486" height="11.487" style="stroke:#000;stroke-width:1.65px;"/><rect x="99.58" y="30.35" width="11.486" height="11.485" style="stroke:#000;stroke-width:1.65px;"/><rect x="99.58" y="18.863" width="11.486" height="11.487" style="stroke:#000;stroke-width:1.65px;"/><rect x="99.58" y="7.375" width="11.486" height="11.487" style="fill:#fff;stroke:#000;stroke-width:1.65px;"/><rect x="111.067" y="110.755" width="11.487" height="11.486" style="stroke:#000;stroke-width:1.65px;"/><rect x="111.067" y="99.269" width="11.487" height="11.487" style="fill:#fff;stroke:#000;stroke-width:1.65px;"/><rect x="111.067" y="87.782" width="11.487" height="11.487" style="stroke:#000;stroke-width:1.65px;"/><rect x="111.067" y="76.294" width="11.487" height="11.487" style="fill:#fff;stroke:#000;stroke-width:1.65px;"/><rect x="111.067" y="64.809" width="11.487" height="11.486" style="stroke:#000;stroke-width:1.65px;"/><rect x="111.067" y="53.321" width="11.487" height="11.487" style="fill:#fff;stroke:#000;stroke-width:1.65px;"/><rect x="111.067" y="41.834" width="11.487" height="11.487" style="stroke:#000;stroke-width:1.65px;"/><rect x="111.067" y="30.35" width="11.487" height="11.485" style="stroke:#000;stroke-width:1.65px;"/><rect x="111.067" y="18.863" width="11.487" height="11.487" style="stroke:#000;stroke-width:1.65px;"/><rect x="111.067" y="7.375" width="11.487" height="11.487" style="fill:#fff;stroke:#000;stroke-width:1.65px;"/><rect x="122.555" y="110.755" width="11.486" height="11.486" style="fill:#fff;stroke:#000;stroke-width:1.65px;"/><rect x="122.555" y="99.269" width="11.486" height="11.487" style="stroke:#000;stroke-width:1.65px;"/><rect x="122.555" y="87.782" width="11.486" height="11.487" style="fill:#fff;stroke:#000;stroke-width:1.65px;"/><rect x="122.555" y="76.294" width="11.486" height="11.487" style="stroke:#000;stroke-width:1.65px;"/><rect x="122.555" y="64.809" width="11.486" height="11.486" style="stroke:#000;stroke-width:1.65px;"/><rect x="122.555" y="53.321" width="11.486" height="11.487" style="stroke:#000;stroke-width:1.65px;"/><rect x="122.555" y="41.834" width="11.486" height="11.487" style="fill:#fff;stroke:#000;stroke-width:1.65px;"/><rect x="122.555" y="30.35" width="11.486" height="11.485" style="fill:#fff;stroke:#000;stroke-width:1.65px;"/><rect x="122.555" y="18.863" width="11.486" height="11.487" style="fill:#fff;stroke:#000;stroke-width:1.65px;"/><rect x="122.555" y="7.375" width="11.486" height="11.487" style="stroke:#000;stroke-width:1.65px;"/></g><g><rect x="20.424" y="125.882" width="113.933" height="49.478" style="fill:none;"/><path d="M15.526,145.229l0.163,-164.663" style="fill:none;"/></g></svg>